# xmcd
#
# Track frame offsets:
#	150
#	13352
#	28608
#	45961
#	60601
#	75015
#	88890
#	103408
#	120732
#	139814
#	159333
#	176458
#
# Disc length: 2558 seconds
#
# Revision: 0
# Processed by: cddbd v1.5.2PL0 Copyright (c) Steve Scherf et al.
# Submitted via: EasyCDDAExtractor 12.0.0.1
#
DISCID=9209fc0c
DTITLE=John O'Dea - Old Rusty Ute
DYEAR=2006
DGENRE=Country
TTITLE0=Old Rusty Ute
TTITLE1=Old Man In Little Boys Shoes
TTITLE2=Woman From Saigon
TTITLE3=I'll Be Fine
TTITLE4=Gran's Quilt
TTITLE5=Boundary Riders Wife
TTITLE6=The Pal
TTITLE7=As If He Knows
TTITLE8=Parachilna Sunset
TTITLE9=Lady On The Land
TTITLE10=She Doesn't Water Roses Anymore
TTITLE11=Choices
EXTD=
EXTT0=
EXTT1=
EXTT2=
EXTT3=
EXTT4=
EXTT5=
EXTT6=
EXTT7=
EXTT8=
EXTT9=
EXTT10=
EXTT11=
PLAYORDER=
